<!-- Generator: Adobe Illustrator 19.2.1, SVG Export Plug-In  -->
<svg version="1.1"
	 xmlns="http://www.w3.org/2000/svg" xmlns:xlink="http://www.w3.org/1999/xlink" xmlns:a="http://ns.adobe.com/AdobeSVGViewerExtensions/3.0/"
	 x="0px" y="0px" width="326px" height="207px" viewBox="0 0 326 207" style="enable-background:new 0 0 326 207;"
	 xml:space="preserve">
<style type="text/css">
	.st0{fill:#009141;}
	.st1{fill:#AF418E;}
	.st2{fill:#FFED00;}
	.st3{fill:#EC7331;}
	.st4{fill:#FFFFFF;}
	.st5{fill:#F5A200;}
	.st6{fill:#E10071;}
	.st7{fill:#FFEC55;}
</style>
<defs>
</defs>
<g id="confete_1_">
	<g>
		<path class="st0" d="M110,16c-2-1-4-1-4-2c-1-4,3-6,4-10C118,5,111,12,110,16L110,16z"/>
	</g>
	<g>
		<path class="st1" d="M102,44c-1,2,6,6-6,4c-2,0-4-2-7-1C88,37,97,46,102,44L102,44z"/>
	</g>
	<g>
		<path class="st1" d="M95,108c-6,6-6-4-10-7c2-1,4-3,5-3C93,100,92,105,95,108L95,108z"/>
	</g>
	<g>
		<path class="st2" d="M81,29c-2-1-4-1-4-2c-1-4,2-7,5-10c1,0,4,1,4,2C86,23,82,25,81,29L81,29z"/>
	</g>
	<g>
		<path class="st3" d="M116,52c-1-1-4-3-3-4c0-4,6-2,8-7C128,46,119,48,116,52L116,52z"/>
	</g>
	<g>
		<path class="st3" d="M115,75c-2,0-4,1-5,0s-1-3-1-5c1-2,1-5,1-7c2,0,4-1,5,0C117,67,112,71,115,75L115,75z"/>
	</g>
	<g>
		<path class="st1" d="M273,33c1,9-7,2-12,3c0-2,0-4,1-5c2-1,5,0,8,2C271,33,272,33,273,33L273,33z"/>
	</g>
	<g>
		<path class="st2" d="M252,18c-1-1-3-2-4-3c-1-2,1-5,4-7c1-1,1-2,1-3c1,1,7-1,3,6C254,13,252,15,252,18L252,18z"/>
	</g>
	<g>
		<path class="st3" d="M287,41c-7-5,2-8,6-11c1,1,3,3,3,4c-1,2-4,3-7,4C288,39,288,40,287,41L287,41z"/>
	</g>
	<g>
		<path class="st3" d="M286,63c-2,0-4,1-5,0c-2-3,2-7,0-11c2,0,4,0,5,0C287,55,286,59,286,63L286,63z"/>
	</g>
	<g>
		<path class="st4" d="M165,18c-1-1-3-2-4-3c0-1,2-3,3-4c2-1,3-3,5-4c1,0,3,2,4,3C170,13,168,15,165,18L165,18z"/>
	</g>
	<g>
		<path class="st4" d="M151,40c-1,1-2,3-3,3c-2,0-4-3-5-6c-1-1-3-2-3-2C144,27,147,37,151,40L151,40z"/>
	</g>
	<g>
		<path class="st5" d="M205,24c-2-1-6,0-1-7c2-1,4-3,5-5c1,1,4,3,3,4C212,20,206,20,205,24L205,24z"/>
	</g>
	<g>
		<path class="st5" d="M191.8,18.5c-2.6-1-3.2-1.3-5.2-2.7c-1.2-1.3-0.4-2.5-0.6-3.3c-0.6-1.2,2.8-3.6,1.4-5.3
			c2.4-1,3.1-3.3,4.8-2.6c0.4,1.4,0.9,4.1-0.2,6.5C191.2,13.5,188.9,15.5,191.8,18.5C191.8,18.5,191.8,18.5,191.8,18.5z"/>
	</g>
	<g>
		<path class="st6" d="M176.7,45.3c-2.3-1-3.2-1.5-4.9-2.9c-0.5-2-0.8-2.9,0.3-4.4c0.8-1.4,3-3.4,0.1-4.4c2.6-1,3.1-3.4,5.1-2.8
			c0.9,1.6,1.4,4.8,0.3,7.3C176.8,40.6,174.5,42.6,176.7,45.3C176.7,45.3,176.7,45.3,176.7,45.3z"/>
	</g>
	<g>
		<path class="st6" d="M233,16c-2,1-4,2-5,2c-2-1-2-4-3-7c0-1-1-1-2-2c1-1,3-2,4-3C228,10,231,13,233,16L233,16z"/>
	</g>
	<g>
		<path class="st6" d="M222,108c-1,1-2,4-3,4c-2-1-4-3-6-6c-1-1-2-1-3-1c1-1,2-4,3-4C217,102,218,106,222,108L222,108z"/>
	</g>
	<g>
		<path class="st7" d="M199,91c-1-2-2-4-2-5c1-2,5-2,8-2c1,0,2-1,3-2c1,2,2,4,2,5c-1,2-5,2-8,2C201,89,200,90,199,91L199,91z"/>
	</g>
	<g>
		<path class="st0" d="M161,63c-1-1-4-3-3-4c0-4,6-4,7-8c1,1,4,3,3,4C168,59,162,59,161,63L161,63z"/>
	</g>
	<g>
		<path class="st1" d="M260,67c-1,1-3,2-4,3c-1-4-4-7-6-10c2-1,4-2,5-2c2,1,2,4,3,7C258,66,259,66,260,67L260,67z"/>
	</g>
	<g>
		<path class="st1" d="M55,20c-7-5,3-7,6-11c1,1,3,3,3,4c-1,2-3,3-6,4C57,18,56,19,55,20L55,20z"/>
	</g>
	<g>
		<path class="st1" d="M146,6c0-2-1-4,0-5s3-1,4-1c2,0,5,1,7,1c0,2,1,4,0,5C154,8,150,4,146,6L146,6z"/>
	</g>
	<g>
		<path class="st2" d="M55,35c0-2,0-4,1-5c4-1,7,3,11,4c-1,1-1,3-2,4c-2,0-5-1-7-3C57,35,56,35,55,35L55,35z"/>
	</g>
	<g>
		<path class="st1" d="M38,116c-2,1-3,1-5,2c-1-4-1-8-4-11c2-1,4-2,5-2c2,1,2,5,2,8C36,114,37,115,38,116L38,116z"/>
	</g>
	<g>
		<path class="st2" d="M40,90c0-2-1-4-1-5c3-2,8-2,11-1c1,1,1,3,1,5C47,89,44,88,40,90L40,90z"/>
	</g>
	<g>
		<path class="st3" d="M39,132c0-2,0-4,1-5c2-1,5,1,8,3c1,0,2,0,3,0c0,2,0,4-1,4C46,135,43,133,39,132L39,132z"/>
	</g>
	<g>
		<path class="st4" d="M69,155c-8,0-2-8-3-12c2,0,4,0,5,1C72,147,70,151,69,155L69,155z"/>
	</g>
	<g>
		<path class="st7" d="M70,199c1-1,2-3,3-4c1,0,3,2,4,3c1,2,3,4,5,5c-1,1-2,3-3,4C76,204,74,201,70,199L70,199z"/>
	</g>
	<g>
		<path class="st0" d="M55,176c0-2,0-4,1-5c2-1,5,1,8,2c1,0,2-1,3-1c0,2,1,4,0,5C63,179,59,175,55,176L55,176z"/>
	</g>
	<g>
		<path class="st1" d="M33,64c1-2,1-4,2-5c2,0,5,1,7,3c1,0,3,0,4,0c-1,2-1,4-2,5c-2,0-5-1-7-3C36,64,34,64,33,64L33,64z"/>
	</g>
	<g>
		<path class="st2" d="M6,15c2-1,4-2,5-2c1,1,2,3,2,4c0,2,0,5,1,7c-2,1-4,2-5,2C6,23,10,18,6,15L6,15z"/>
	</g>
	<g>
		<path class="st1" d="M326,99c-1,1-3,3-4,3c-4-1-4-7-8-8c1-1,3-4,4-3C322,91,323,97,326,99L326,99z"/>
	</g>
	<g>
		<path class="st1" d="M287,148c-2,0-4,1-5,0s-1-3-1-4c0-2,1-5,1-7c2,0,4-5,5,4c0,1-1,3-1,4S287,147,287,148L287,148z"/>
	</g>
	<g>
		<path class="st1" d="M281,113c-1-1-3-3-3-4c0-2,3-4,6-5c1-1,1-2,2-3C293,106,283,108,281,113L281,113z"/>
	</g>
	<g>
		<path class="st2" d="M317,74c-1-2-3-4-3-5c2-3,7-2,10-5c1,1,2,3,2,4c-1,2-3,3-7,4C318,72,318,73,317,74L317,74z"/>
	</g>
	<g>
		<path class="st1" d="M300,53c0-2-1-4,0-5c3-2,8,0,11-2c0,2,1,4,1,5C309,53,304,51,300,53L300,53z"/>
	</g>
	<g>
		<path class="st2" d="M292,64c1-1,3-2,4-2c2,1,3,3,4,6c1,1,2,2,3,3c-1,1-3,3-4,3C296,72,294,67,292,64L292,64z"/>
	</g>
	<g>
		<path class="st0" d="M262,132c1-2,1-4,2-4c4-1,6,3,10,4C273,140,266,133,262,132L262,132z"/>
	</g>
	<g>
		<path class="st2" d="M265,85c1-1,1-4,2-4c4,0,6,4,10,5c-1,2-1,4-2,4C271,91,268,87,265,85L265,85z"/>
	</g>
	<g>
		<path class="st3" d="M226,138c5-7,8,2,11,6c-1,1-3,3-4,3c-2-1-3-3-4-6C228,140,227,139,226,138L226,138z"/>
	</g>
	<g>
		<path class="st4" d="M239,174c-1-1-4-3-3-4c0-3,4-5,7-7c1,0,4,2,4,3C246,170,240,170,239,174L239,174z"/>
	</g>
	<g>
		<path class="st0" d="M216,184c1-1,2-3,3-4c1,0,3,2,4,3c1,2,3,4,5,5c-1,1-3,4-4,3C220,191,220,185,216,184L216,184z"/>
	</g>
	<g>
		<path class="st6" d="M16.8,93.5c-2.7-1-3.2-1.3-5.2-2.7c-1.2-1.3-0.4-2.6-0.6-3.3c-0.6-1.2,2.7-3.6,1.4-5.3c2.4-1,3.1-3.3,4.8-2.7
			c0.4,1.4,0.9,4.3-0.5,6.5C15.7,88.5,12.9,90.2,16.8,93.5C16.8,93.5,16.8,93.5,16.8,93.5z"/>
	</g>
	<g>
		<path class="st1" d="M2,60c0-2-1-4-1-5c3-2,8,0,11-2c0,2,1,4,1,5C10,60,5,58,2,60L2,60z"/>
	</g>
	<g>
		<path class="st0" d="M0,126c1-2,1-4,2-4c4-1,6,3,10,4C11,134,4,127,0,126L0,126z"/>
	</g>
</g>
</svg>
