<!-- Generator: Adobe Illustrator 19.2.1, SVG Export Plug-In  -->
<svg version="1.1"
	 xmlns="http://www.w3.org/2000/svg" xmlns:xlink="http://www.w3.org/1999/xlink" xmlns:a="http://ns.adobe.com/AdobeSVGViewerExtensions/3.0/"
	 x="0px" y="0px" width="321px" height="160.4px" viewBox="0 0 321 160.4" style="enable-background:new 0 0 321 160.4;"
	 xml:space="preserve">
<style type="text/css">
	.st0{fill:#128BA3;}
	.st1{fill:#1AC7C2;}
	.st2{fill:#FDBE09;}
	.st3{fill:#FDDC4B;}
</style>
<defs>
</defs>
<g>
	<g>
		<path class="st0" d="M21,92.3c0,0,2-8.4-5-15.6c-7-7.2-15.7-7.2-15.7-7.2S-1.8,79.3,5,86.4C11.8,93.4,21,92.3,21,92.3z"/>
		<path class="st0" d="M36.4,90.7c0,0,8.1-4.5,9.6-14.2c1.4-9.7-6-16.5-6-16.5s-7.1,5.1-8.6,15C29.8,85.1,36.4,90.7,36.4,90.7z"/>
		<path class="st0" d="M48.7,115.1c0,0,7.5-5.5,7.6-15.3c0.2-9.8-8.1-15.5-8.1-15.5s-6.4,6-6.5,16C41.5,110.3,48.7,115.1,48.7,115.1
			z"/>
		<path class="st0" d="M67.1,129.1c0,0,6.9-6.2,6.2-15.9c-0.8-9.8-9.5-14.7-9.5-14.7s-5.8,6.6-5,16.6
			C59.5,125,67.1,129.1,67.1,129.1z"/>
		<path class="st0" d="M90.2,141.1c0,0,4.9-7.9,1.3-17c-3.5-9.1-13.4-11.3-13.4-11.3s-3.7,8,0,17.3
			C81.7,139.5,90.2,141.1,90.2,141.1z"/>
		<path class="st0" d="M24.3,70.9c0,0,6.3-5.8,4.5-15.7c-1.8-9.9-9.1-14.7-9.1-14.7s-7.2,7-5.5,16.7C16,66.7,24.3,70.9,24.3,70.9z"
			/>
		<path class="st0" d="M29.5,111.2c0,0-0.5-8.6-9.3-13.4C11.4,93,3,95.5,3,95.5s0.9,10,9.4,14.8C21,115,29.5,111.2,29.5,111.2z"/>
		<path class="st0" d="M44.4,127.9c0,0-2.4-8.3-12.1-11c-9.7-2.8-17.2,1.6-17.2,1.6s3.1,9.6,12.5,12.3
			C37,133.4,44.4,127.9,44.4,127.9z"/>
		<path class="st0" d="M61,139.7c0,0-4.8-7.1-14.9-6.8c-10,0.3-16,6.7-16,6.7s5.8,8.2,15.6,7.9C55.6,147.3,61,139.7,61,139.7z"/>
		<path class="st0" d="M68.1,144.5c-9.9,1.5-15,8.6-15,8.6s6.8,7.5,16.5,6c9.7-1.5,14.1-9.6,14.1-9.6S78.1,143.1,68.1,144.5z"/>
		<path class="st1" d="M27.6,75.8l-4.8-0.2c0,0.5-1,52.5,77.6,75.5l1.3-4.6C27,124.6,27.5,77.8,27.6,75.8z"/>
	</g>
	<g>
		<path class="st0" d="M300,92.3c0,0,9.2,1.1,16-5.9c6.8-7,4.7-16.9,4.7-16.9s-8.7,0-15.7,7.2C297.9,83.9,300,92.3,300,92.3z"/>
		<path class="st0" d="M275.1,76.6c1.4,9.7,9.6,14.2,9.6,14.2s6.5-5.6,5.1-15.6c-1.5-9.9-8.6-15-8.6-15S273.6,66.9,275.1,76.6z"/>
		<path class="st0" d="M264.6,99.8c0.2,9.8,7.6,15.3,7.6,15.3s7.2-4.7,7-14.8c-0.2-10.1-6.5-16-6.5-16S264.5,90,264.6,99.8z"/>
		<path class="st0" d="M247.7,113.1c-0.7,9.8,6.2,15.9,6.2,15.9s7.6-4,8.4-14c0.8-10-5-16.6-5-16.6S248.5,103.4,247.7,113.1z"/>
		<path class="st0" d="M229.5,124.1c-3.5,9.1,1.3,17,1.3,17s8.5-1.7,12.1-11c3.6-9.4,0-17.3,0-17.3S233,115,229.5,124.1z"/>
		<path class="st0" d="M306.7,57.1c1.8-9.6-5.5-16.7-5.5-16.7s-7.3,4.9-9.1,14.7c-1.8,9.9,4.5,15.7,4.5,15.7S304.9,66.7,306.7,57.1z
			"/>
		<path class="st0" d="M300.8,97.8c-8.8,4.8-9.3,13.4-9.3,13.4s8.5,3.8,17.1-1c8.6-4.7,9.4-14.8,9.4-14.8S309.6,93,300.8,97.8z"/>
		<path class="st0" d="M288.7,116.9c-9.7,2.8-12.1,11-12.1,11s7.4,5.6,16.8,2.9c9.4-2.7,12.5-12.3,12.5-12.3
			S298.3,114.1,288.7,116.9z"/>
		<path class="st0" d="M274.8,132.9c-10-0.3-14.9,6.8-14.9,6.8s5.4,7.5,15.2,7.8c9.8,0.3,15.6-7.9,15.6-7.9S284.9,133.2,274.8,132.9
			z"/>
		<path class="st0" d="M252.9,144.5c-9.9-1.5-15.6,5-15.6,5s4.4,8.1,14.1,9.6c9.7,1.5,16.5-6,16.5-6S262.8,146,252.9,144.5z"/>
		<path class="st1" d="M298.2,75.6l-4.8,0.2c0.1,2,0.6,48.8-74.1,70.8l1.3,4.6C299.1,128.1,298.2,76.1,298.2,75.6z"/>
	</g>
	<path class="st2" d="M191.2,150.9h-6.8c0-7.5,0-17.4,0-19.6c-12.4-4-14.3-29.4-14.5-33.1h4.2v-19c2.8-1.4,7.2-4.7,11.5-10.6
		l7.5,9.8l8.2-8.7l-6.5-8.5c7.1,2.8,18.8,5.4,27.9-2.2c10.1-8.4,13.6-26.4,10.4-53.4L232.5,0l-73,0.1L86.5,0l-0.7,5.6
		c-3.2,27.1,0.3,45,10.4,53.4c9.1,7.5,20.8,4.9,27.9,2.2l-6.5,8.5l8.2,8.7l7.5-9.8c4.3,5.9,8.7,9.2,11.5,10.6v19h4.2
		c-0.2,3.7-2.1,29.1-14.5,33.1c0,2.3,0,12.2,0,19.6h-6.8v9.5h31.6h0.2h31.6L191.2,150.9L191.2,150.9z M198,13l24.8,0
		c1.6,18.4-0.6,30.5-6.4,35.4c-6.1,5-16.1,1.6-21.1-0.9C197.6,38.4,198.9,27,198,13z M102.6,48.4c-5.8-4.8-8-17-6.4-35.4l24.8,0
		c-0.9,14,0.4,25.4,2.7,34.5C118.7,50,108.6,53.4,102.6,48.4z"/>
	<path class="st3" d="M134.6,131.3c0,2.3,0,12.2,0,19.6h-6.8v9.5h31.5V0.1L86.5,0l-0.7,5.6c-3.2,27.1,0.3,45,10.4,53.4
		c9.1,7.5,20.8,4.9,27.9,2.2l-6.5,8.5l8.2,8.7l7.5-9.8c4.3,5.9,8.7,9.2,11.5,10.6v19h4.2C148.9,101.9,147,127.3,134.6,131.3z
		 M102.6,48.4c-5.8-4.8-8-17-6.4-35.4l24.8,0c-0.9,14,0.4,25.4,2.7,34.5C118.7,50,108.6,53.4,102.6,48.4z"/>
</g>
</svg>
